<svg width="200" height="45" viewBox="0 0 200 45" fill="none" xmlns="http://www.w3.org/2000/svg">
<path d="M0.539062 0H200V37C200 41.4183 196.418 45 192 45H0.539062V0Z" fill="#6F64F8"/>
<path d="M66.4321 25.732H61.5321L60.5661 28H58.6901L63.1001 18.2H64.8921L69.3161 28H67.4121L66.4321 25.732ZM65.8301 24.304L63.9821 20.02L62.1481 24.304H65.8301ZM70.5624 18.2H74.8464C75.8917 18.2 76.8204 18.4053 77.6324 18.816C78.4444 19.2173 79.0744 19.7913 79.5224 20.538C79.9704 21.2753 80.1944 22.1293 80.1944 23.1C80.1944 24.0707 79.9704 24.9293 79.5224 25.676C79.0744 26.4133 78.4444 26.9873 77.6324 27.398C76.8204 27.7993 75.8917 28 74.8464 28H70.5624V18.2ZM74.7624 26.46C75.4811 26.46 76.1111 26.3247 76.6524 26.054C77.2031 25.774 77.6231 25.382 77.9124 24.878C78.2111 24.3647 78.3604 23.772 78.3604 23.1C78.3604 22.428 78.2111 21.84 77.9124 21.336C77.6231 20.8227 77.2031 20.4307 76.6524 20.16C76.1111 19.88 75.4811 19.74 74.7624 19.74H72.3824V26.46H74.7624ZM82.1288 18.2H86.4128C87.4581 18.2 88.3868 18.4053 89.1988 18.816C90.0108 19.2173 90.6408 19.7913 91.0888 20.538C91.5368 21.2753 91.7608 22.1293 91.7608 23.1C91.7608 24.0707 91.5368 24.9293 91.0888 25.676C90.6408 26.4133 90.0108 26.9873 89.1988 27.398C88.3868 27.7993 87.4581 28 86.4128 28H82.1288V18.2ZM86.3288 26.46C87.0475 26.46 87.6775 26.3247 88.2188 26.054C88.7695 25.774 89.1895 25.382 89.4788 24.878C89.7775 24.3647 89.9268 23.772 89.9268 23.1C89.9268 22.428 89.7775 21.84 89.4788 21.336C89.1895 20.8227 88.7695 20.4307 88.2188 20.16C87.6775 19.88 87.0475 19.74 86.3288 19.74H83.9488V26.46H86.3288ZM99.5524 19.74H96.3044V18.2H104.62V19.74H101.372V28H99.5524V19.74ZM110.428 28.14C109.429 28.14 108.528 27.9253 107.726 27.496C106.923 27.0573 106.293 26.4553 105.836 25.69C105.378 24.9153 105.15 24.052 105.15 23.1C105.15 22.148 105.378 21.2893 105.836 20.524C106.293 19.7493 106.923 19.1473 107.726 18.718C108.528 18.2793 109.429 18.06 110.428 18.06C111.426 18.06 112.327 18.2793 113.13 18.718C113.932 19.1473 114.562 19.7447 115.02 20.51C115.477 21.2753 115.706 22.1387 115.706 23.1C115.706 24.0613 115.477 24.9247 115.02 25.69C114.562 26.4553 113.932 27.0573 113.13 27.496C112.327 27.9253 111.426 28.14 110.428 28.14ZM110.428 26.544C111.081 26.544 111.669 26.3993 112.192 26.11C112.714 25.8113 113.125 25.4007 113.424 24.878C113.722 24.346 113.872 23.7533 113.872 23.1C113.872 22.4467 113.722 21.8587 113.424 21.336C113.125 20.804 112.714 20.3933 112.192 20.104C111.669 19.8053 111.081 19.656 110.428 19.656C109.774 19.656 109.186 19.8053 108.664 20.104C108.141 20.3933 107.73 20.804 107.432 21.336C107.133 21.8587 106.984 22.4467 106.984 23.1C106.984 23.7533 107.133 24.346 107.432 24.878C107.73 25.4007 108.141 25.8113 108.664 26.11C109.186 26.3993 109.774 26.544 110.428 26.544ZM126.04 28.14C125.05 28.14 124.154 27.9253 123.352 27.496C122.558 27.0573 121.933 26.4553 121.476 25.69C121.028 24.9247 120.804 24.0613 120.804 23.1C120.804 22.1387 121.032 21.2753 121.49 20.51C121.947 19.7447 122.572 19.1473 123.366 18.718C124.168 18.2793 125.064 18.06 126.054 18.06C126.856 18.06 127.589 18.2 128.252 18.48C128.914 18.76 129.474 19.166 129.932 19.698L128.756 20.804C128.046 20.0387 127.174 19.656 126.138 19.656C125.466 19.656 124.864 19.8053 124.332 20.104C123.8 20.3933 123.384 20.7993 123.086 21.322C122.787 21.8447 122.638 22.4373 122.638 23.1C122.638 23.7627 122.787 24.3553 123.086 24.878C123.384 25.4007 123.8 25.8113 124.332 26.11C124.864 26.3993 125.466 26.544 126.138 26.544C127.174 26.544 128.046 26.1567 128.756 25.382L129.932 26.502C129.474 27.034 128.91 27.44 128.238 27.72C127.575 28 126.842 28.14 126.04 28.14ZM137.827 25.732H132.927L131.961 28H130.085L134.495 18.2H136.287L140.711 28H138.807L137.827 25.732ZM137.225 24.304L135.377 20.02L133.543 24.304H137.225ZM148.369 28L146.367 25.13C146.283 25.1393 146.157 25.144 145.989 25.144H143.777V28H141.957V18.2H145.989C146.838 18.2 147.576 18.34 148.201 18.62C148.836 18.9 149.321 19.3013 149.657 19.824C149.993 20.3467 150.161 20.9673 150.161 21.686C150.161 22.4233 149.979 23.058 149.615 23.59C149.26 24.122 148.747 24.5187 148.075 24.78L150.329 28H148.369ZM148.327 21.686C148.327 21.0607 148.122 20.58 147.711 20.244C147.3 19.908 146.698 19.74 145.905 19.74H143.777V23.646H145.905C146.698 23.646 147.3 23.478 147.711 23.142C148.122 22.7967 148.327 22.3113 148.327 21.686ZM154.048 19.74H150.8V18.2H159.116V19.74H155.868V28H154.048V19.74Z" fill="white"/>
<path opacity="0.737212" fill-rule="evenodd" clip-rule="evenodd" d="M32.5247 13L29.6496 16.6V29.2C29.6496 30.1941 30.5077 31 31.5663 31H44.9835C46.0421 31 46.9002 30.1941 46.9002 29.2V16.6L44.0251 13H32.5247Z" stroke="white" stroke-width="2" stroke-linecap="round" stroke-linejoin="round"/>
<path opacity="0.737212" d="M29.6496 17.5H46.9002" stroke="white" stroke-width="2" stroke-linecap="round" stroke-linejoin="round"/>
<path opacity="0.737212" d="M42.5876 21C42.5876 22.6569 40.8981 24 38.814 24C36.7299 24 35.0404 22.6569 35.0404 21" stroke="white" stroke-width="2" stroke-linecap="round" stroke-linejoin="round"/>
</svg>
