<svg width="209" height="53" viewBox="0 0 209 53" fill="none" xmlns="http://www.w3.org/2000/svg">
<g filter="url(#filter0_d)">
<path d="M4 0H204.539V45H12C7.58173 45 4 41.4183 4 37V0Z" fill="#EDEDED"/>
<g style="mix-blend-mode:color-burn">
<path fill-rule="evenodd" clip-rule="evenodd" d="M66.4479 18.1493C65.7031 17.4134 64.6926 17 63.6389 17C62.5853 17 61.5748 17.4134 60.8299 18.1493L60.0645 18.9051L59.2991 18.1493C57.7477 16.6174 55.2324 16.6174 53.681 18.1493C52.1297 19.6812 52.1297 22.1649 53.681 23.6967L54.4465 24.4526L60.0645 30L65.6825 24.4526L66.4479 23.6967C67.1932 22.9612 67.6119 21.9634 67.6119 20.923C67.6119 19.8826 67.1932 18.8848 66.4479 18.1493Z" stroke="black" stroke-width="2" stroke-linecap="round" stroke-linejoin="round"/>
</g>
<g style="mix-blend-mode:darken">
<path d="M91.8752 18.2L88.6272 28H86.6952L84.2732 20.748L81.8092 28H79.8632L76.6152 18.2H78.5052L80.9412 25.648L83.4752 18.2H85.1552L87.6332 25.69L90.1392 18.2H91.8752ZM93.3579 18.2H95.1779V28H93.3579V18.2ZM100.867 28.14C100.111 28.14 99.3779 28.0327 98.6686 27.818C97.9686 27.6033 97.4132 27.3187 97.0026 26.964L97.6326 25.55C98.0339 25.8673 98.5239 26.1287 99.1026 26.334C99.6906 26.53 100.279 26.628 100.867 26.628C101.595 26.628 102.136 26.5113 102.491 26.278C102.855 26.0447 103.037 25.7367 103.037 25.354C103.037 25.074 102.934 24.8453 102.729 24.668C102.533 24.4813 102.281 24.3367 101.973 24.234C101.665 24.1313 101.245 24.0147 100.713 23.884C99.9659 23.7067 99.3592 23.5293 98.8926 23.352C98.4352 23.1747 98.0386 22.8993 97.7026 22.526C97.3759 22.1433 97.2126 21.63 97.2126 20.986C97.2126 20.4447 97.3572 19.9547 97.6466 19.516C97.9452 19.068 98.3886 18.7133 98.9766 18.452C99.5739 18.1907 100.302 18.06 101.161 18.06C101.758 18.06 102.346 18.1347 102.925 18.284C103.503 18.4333 104.003 18.648 104.423 18.928L103.849 20.342C103.419 20.09 102.971 19.8987 102.505 19.768C102.038 19.6373 101.585 19.572 101.147 19.572C100.428 19.572 99.8912 19.6933 99.5366 19.936C99.1912 20.1787 99.0186 20.5007 99.0186 20.902C99.0186 21.182 99.1166 21.4107 99.3126 21.588C99.5179 21.7653 99.7746 21.9053 100.083 22.008C100.391 22.1107 100.811 22.2273 101.343 22.358C102.071 22.526 102.668 22.7033 103.135 22.89C103.601 23.0673 103.998 23.3427 104.325 23.716C104.661 24.0893 104.829 24.5933 104.829 25.228C104.829 25.7693 104.679 26.2593 104.381 26.698C104.091 27.1367 103.648 27.4867 103.051 27.748C102.453 28.0093 101.725 28.14 100.867 28.14ZM115.341 18.2V28H113.521V23.8H108.453V28H106.633V18.2H108.453V22.246H113.521V18.2H115.341ZM117.967 18.2H119.787V26.46H124.911V28H117.967V18.2ZM126.348 18.2H128.168V28H126.348V18.2ZM133.857 28.14C133.101 28.14 132.368 28.0327 131.659 27.818C130.959 27.6033 130.403 27.3187 129.993 26.964L130.623 25.55C131.024 25.8673 131.514 26.1287 132.093 26.334C132.681 26.53 133.269 26.628 133.857 26.628C134.585 26.628 135.126 26.5113 135.481 26.278C135.845 26.0447 136.027 25.7367 136.027 25.354C136.027 25.074 135.924 24.8453 135.719 24.668C135.523 24.4813 135.271 24.3367 134.963 24.234C134.655 24.1313 134.235 24.0147 133.703 23.884C132.956 23.7067 132.349 23.5293 131.883 23.352C131.425 23.1747 131.029 22.8993 130.693 22.526C130.366 22.1433 130.203 21.63 130.203 20.986C130.203 20.4447 130.347 19.9547 130.637 19.516C130.935 19.068 131.379 18.7133 131.967 18.452C132.564 18.1907 133.292 18.06 134.151 18.06C134.748 18.06 135.336 18.1347 135.915 18.284C136.493 18.4333 136.993 18.648 137.413 18.928L136.839 20.342C136.409 20.09 135.961 19.8987 135.495 19.768C135.028 19.6373 134.575 19.572 134.137 19.572C133.418 19.572 132.881 19.6933 132.527 19.936C132.181 20.1787 132.009 20.5007 132.009 20.902C132.009 21.182 132.107 21.4107 132.303 21.588C132.508 21.7653 132.765 21.9053 133.073 22.008C133.381 22.1107 133.801 22.2273 134.333 22.358C135.061 22.526 135.658 22.7033 136.125 22.89C136.591 23.0673 136.988 23.3427 137.315 23.716C137.651 24.0893 137.819 24.5933 137.819 25.228C137.819 25.7693 137.669 26.2593 137.371 26.698C137.081 27.1367 136.638 27.4867 136.041 27.748C135.443 28.0093 134.715 28.14 133.857 28.14ZM141.475 19.74H138.227V18.2H146.543V19.74H143.295V28H141.475V19.74Z" fill="#2C2C2C"/>
</g>
</g>
<defs>
<filter id="filter0_d" x="0" y="0" width="208.539" height="53" filterUnits="userSpaceOnUse" color-interpolation-filters="sRGB">
<feFlood flood-opacity="0" result="BackgroundImageFix"/>
<feColorMatrix in="SourceAlpha" type="matrix" values="0 0 0 0 0 0 0 0 0 0 0 0 0 0 0 0 0 0 127 0" result="hardAlpha"/>
<feOffset dy="4"/>
<feGaussianBlur stdDeviation="2"/>
<feComposite in2="hardAlpha" operator="out"/>
<feColorMatrix type="matrix" values="0 0 0 0 0 0 0 0 0 0 0 0 0 0 0 0 0 0 0.25 0"/>
<feBlend mode="normal" in2="BackgroundImageFix" result="effect1_dropShadow"/>
<feBlend mode="normal" in="SourceGraphic" in2="effect1_dropShadow" result="shape"/>
</filter>
</defs>
</svg>
